<?xml version="1.0" standalone="no"?><!DOCTYPE svg PUBLIC "-//W3C//DTD SVG 1.1//EN" "http://www.w3.org/Graphics/SVG/1.1/DTD/svg11.dtd"><svg height="1024" node-id="1" sillyvg="true" template-height="1024" template-width="1024" version="1.1" viewBox="0 0 1024 1024" width="1024" xmlns="http://www.w3.org/2000/svg" xmlns:xlink="http://www.w3.org/1999/xlink"><defs node-id="30"></defs><g node-id="77"><g node-id="78"><path d="M 0.00 0.00 L 1024.00 0.00 L 1024.00 1024.00 L 0.00 1024.00 Z" fill="none" group-id="1,2" node-id="35" stroke="none" target-height="1024" target-width="1024" target-x="0" target-y="0"></path><path d="M 328.70 114.00 L 335.00 139.70 L 335.80 141.70 L 337.10 143.40 L 338.80 144.70 L 340.90 145.60 L 366.60 151.90 L 367.70 152.60 L 368.10 153.80 L 367.70 155.10 L 366.60 155.80 L 340.90 162.10 L 338.80 162.90 L 337.10 164.20 L 335.80 166.00 L 335.00 168.00 L 328.70 193.70 L 328.00 194.80 L 326.70 195.30 L 326.00 195.20 L 325.00 194.40 L 324.80 193.70 L 318.40 168.00 L 317.60 166.00 L 316.30 164.30 L 314.60 163.00 L 312.60 162.10 L 286.80 155.80 L 286.20 155.50 L 285.40 154.50 L 285.40 153.20 L 286.20 152.20 L 286.80 151.90 L 312.60 145.60 L 314.60 144.80 L 316.30 143.50 L 317.60 141.80 L 318.40 139.70 L 324.80 114.00 L 325.50 112.90 L 326.70 112.50 L 328.00 112.90 L 328.70 114.00 Z" fill="#ccdeff" fill-rule="nonzero" group-id="1,2" node-id="37" stroke="none" target-height="82.8" target-width="82.70001" target-x="285.4" target-y="112.5"></path><path d="M 732.60 801.90 L 730.60 823.20 L 730.70 825.00 L 731.20 826.60 L 732.20 828.10 L 733.50 829.20 L 751.50 840.80 L 752.10 841.70 L 752.10 842.70 L 751.50 843.50 L 750.50 843.80 L 729.20 841.90 L 727.40 841.90 L 725.80 842.50 L 724.30 843.40 L 723.20 844.80 L 711.60 862.70 L 710.80 863.40 L 709.70 863.40 L 709.20 863.20 L 708.60 861.70 L 710.60 840.40 L 710.50 838.60 L 710.00 837.00 L 709.00 835.60 L 707.70 834.40 L 689.70 822.80 L 689.00 821.50 L 689.40 820.50 L 690.70 819.80 L 712.00 821.80 L 713.80 821.70 L 715.40 821.20 L 716.90 820.20 L 718.00 818.90 L 730.00 800.50 L 731.00 800.10 L 732.00 800.50 L 732.60 801.90 Z" fill="#ccdeff" fill-rule="nonzero" group-id="1,2" node-id="39" stroke="none" target-height="63.30005" target-width="63.099976" target-x="689" target-y="800.1"></path><path d="M 131.40 192.70 L 147.50 211.20 L 149.00 212.50 L 150.80 213.30 L 152.80 213.70 L 154.80 213.50 L 178.60 207.80 L 179.80 207.90 L 180.70 208.70 L 180.90 209.90 L 180.30 211.00 L 161.80 227.10 L 160.50 228.60 L 159.60 230.40 L 159.30 232.40 L 159.50 234.40 L 165.20 258.20 L 165.10 259.40 L 164.20 260.30 L 163.60 260.50 L 162.00 259.90 L 145.90 241.40 L 144.30 240.10 L 142.50 239.20 L 140.60 238.90 L 138.60 239.10 L 114.70 244.80 L 114.10 244.80 L 113.00 244.30 L 112.50 243.20 L 113.10 241.60 L 131.60 225.50 L 132.90 223.90 L 133.70 222.10 L 134.10 220.20 L 133.90 218.20 L 128.20 194.30 L 128.30 193.10 L 129.10 192.30 L 130.30 192.10 L 131.40 192.70 Z" fill="#ccdeff" fill-rule="nonzero" group-id="1,2" node-id="41" stroke="none" target-height="68.399994" target-width="68.399994" target-x="112.5" target-y="192.1"></path><path d="M 880.00 840.00 L 879.80 843.30 L 879.10 846.40 L 878.10 849.30 L 876.70 852.10 L 875.00 854.70 L 873.00 857.00 L 868.10 860.70 L 865.30 862.10 L 862.40 863.10 L 859.30 863.80 L 856.00 864.00 L 852.70 863.80 L 849.60 863.10 L 846.70 862.10 L 841.30 859.00 L 837.00 854.70 L 835.30 852.10 L 833.90 849.30 L 832.90 846.40 L 832.20 843.30 L 832.00 840.00 L 832.20 836.70 L 832.90 833.60 L 833.90 830.70 L 837.00 825.30 L 841.30 821.00 L 843.90 819.30 L 846.70 817.90 L 849.60 816.90 L 852.70 816.20 L 856.00 816.00 L 859.30 816.20 L 862.40 816.90 L 865.30 817.90 L 868.10 819.30 L 873.00 823.00 L 876.70 827.90 L 878.10 830.70 L 879.10 833.60 L 879.80 836.70 L 880.00 840.00 Z" fill="#ccdeff" fill-rule="nonzero" group-id="1,2" node-id="43" stroke="none" target-height="48" target-width="48" target-x="832" target-y="816"></path><path d="M 278.70 892.10 L 282.60 891.90 L 289.90 890.40 L 293.40 889.10 L 297.70 886.80 L 301.70 884.10 L 305.30 880.90 L 308.50 877.20 L 311.20 873.10 L 313.40 868.70 L 314.70 865.20 L 316.20 857.70 L 316.40 853.70 L 315.70 846.20 L 313.50 839.00 L 311.90 835.60 L 310.00 832.40 L 306.80 830.40 L 300.00 827.50 L 292.70 826.00 L 286.20 826.00 L 284.20 825.50 L 283.40 824.80 L 281.20 820.90 L 277.20 815.40 L 274.80 815.40 L 273.90 815.00 L 272.50 813.50 L 269.90 808.70 L 262.30 804.30 L 253.60 800.80 L 249.00 799.60 L 239.30 798.20 L 234.20 798.00 L 228.80 798.20 L 218.90 799.70 L 209.60 802.70 L 201.50 806.80 L 194.50 812.00 L 191.50 815.00 L 189.00 818.10 L 186.80 821.40 L 185.10 825.00 L 183.80 828.60 L 183.10 832.40 L 182.50 837.70 L 181.80 838.80 L 180.70 839.60 L 179.40 839.80 L 174.20 840.10 L 169.30 841.00 L 164.70 842.30 L 160.30 844.20 L 156.30 846.40 L 152.70 849.00 L 149.50 852.10 L 146.80 855.40 L 144.70 859.00 L 143.40 861.90 L 141.90 868.00 L 141.70 871.20 L 142.00 875.00 L 142.80 878.60 L 144.00 882.10 L 145.80 885.40 L 149.30 887.40 L 156.90 890.50 L 165.00 892.00 L 169.10 892.20 Z" fill="#80adff" fill-rule="nonzero" group-id="1,2" node-id="45" stroke="none" target-height="94.20001" target-width="174.7" target-x="141.7" target-y="798"></path><path d="M 278.70 899.60 L 265.00 899.60 L 263.40 899.30 L 262.20 898.40 L 261.30 897.20 L 261.00 895.60 L 261.30 894.00 L 262.20 892.80 L 263.40 891.90 L 265.00 891.60 L 282.50 891.40 L 289.70 889.90 L 293.10 888.60 L 297.40 886.40 L 301.30 883.70 L 304.90 880.50 L 308.10 876.80 L 310.70 872.80 L 312.90 868.50 L 315.00 861.40 L 315.80 853.70 L 315.60 849.80 L 315.00 846.10 L 312.90 839.00 L 310.70 834.60 L 308.10 830.60 L 304.90 827.00 L 301.30 823.80 L 297.40 821.10 L 293.10 818.90 L 286.20 816.70 L 282.50 816.10 L 274.70 815.90 L 273.60 815.50 L 272.70 814.70 L 270.00 810.00 L 267.50 806.50 L 264.60 803.20 L 261.30 800.20 L 257.60 797.50 L 253.50 795.10 L 249.20 793.00 L 244.50 791.30 L 239.60 789.90 L 234.60 788.80 L 229.30 788.20 L 223.90 788.00 L 218.60 788.20 L 208.80 789.70 L 199.60 792.60 L 195.40 794.50 L 188.00 799.10 L 184.60 801.90 L 181.70 804.80 L 179.20 807.90 L 177.10 811.10 L 175.40 814.60 L 174.10 818.20 L 173.40 822.00 L 172.80 827.40 L 171.90 828.70 L 170.70 829.50 L 164.00 830.10 L 159.20 831.00 L 154.70 832.30 L 150.30 834.10 L 146.40 836.30 L 142.90 838.90 L 139.70 841.90 L 137.10 845.20 L 134.90 848.70 L 132.80 854.50 L 132.00 860.70 L 132.20 863.90 L 133.70 869.90 L 134.90 872.70 L 137.10 876.30 L 139.70 879.50 L 142.90 882.50 L 146.40 885.10 L 150.30 887.30 L 154.70 889.20 L 159.20 890.50 L 164.00 891.30 L 169.10 891.60 L 237.60 891.60 L 239.20 891.90 L 240.40 892.80 L 241.30 894.00 L 241.60 895.60 L 241.30 897.20 L 240.40 898.40 L 239.20 899.30 L 237.60 899.60 L 169.10 899.60 L 159.90 898.80 L 151.60 896.50 L 147.60 894.90 L 140.40 890.70 L 134.30 885.40 L 131.70 882.40 L 127.50 875.80 L 126.00 872.30 L 124.90 868.60 L 124.20 864.70 L 124.00 860.70 L 124.20 856.90 L 124.80 853.30 L 125.80 849.70 L 127.20 846.30 L 129.60 842.00 L 132.50 838.00 L 136.00 834.30 L 139.90 831.10 L 144.30 828.30 L 149.10 825.90 L 154.20 824.00 L 159.60 822.70 L 165.30 822.00 L 166.10 817.60 L 167.30 813.40 L 169.00 809.40 L 171.20 805.50 L 173.80 801.90 L 176.80 798.40 L 180.20 795.20 L 184.00 792.20 L 188.10 789.50 L 192.40 787.10 L 197.10 785.00 L 202.10 783.20 L 207.20 781.90 L 212.60 780.80 L 218.10 780.20 L 223.90 780.00 L 229.80 780.20 L 235.50 780.90 L 241.10 782.00 L 246.50 783.50 L 251.60 785.40 L 256.40 787.60 L 261.00 790.30 L 265.20 793.20 L 269.10 796.40 L 272.50 800.00 L 275.50 803.80 L 278.00 807.90 L 283.40 808.10 L 287.80 808.80 L 292.10 809.90 L 296.20 811.50 L 300.20 813.40 L 303.90 815.70 L 307.40 818.30 L 310.60 821.30 L 313.50 824.60 L 316.10 828.10 L 318.30 831.90 L 320.30 835.90 L 321.80 840.10 L 322.90 844.40 L 323.60 849.00 L 323.80 853.70 L 323.60 858.50 L 322.90 863.00 L 321.80 867.40 L 320.30 871.60 L 318.30 875.60 L 316.10 879.40 L 313.50 882.90 L 310.60 886.10 L 307.40 889.10 L 303.90 891.70 L 300.20 894.00 L 296.20 896.00 L 292.10 897.50 L 287.80 898.60 L 283.40 899.30 L 278.70 899.60 Z" fill="#101129" fill-rule="nonzero" group-id="1,2" node-id="47" stroke="none" target-height="119.599976" target-width="199.79999" target-x="124" target-y="780"></path><path d="M 873.70 217.10 L 877.60 216.90 L 881.30 216.20 L 884.90 215.20 L 888.40 213.70 L 891.70 211.80 L 897.70 207.10 L 900.40 204.20 L 905.00 197.80 L 906.80 194.10 L 909.70 186.20 L 910.70 182.10 L 911.40 173.10 L 910.70 164.60 L 908.60 156.40 L 907.00 152.40 L 905.00 148.60 L 901.90 146.40 L 898.60 144.60 L 895.10 143.10 L 891.50 142.00 L 887.80 141.40 L 881.20 141.30 L 879.10 140.70 L 878.30 139.90 L 876.30 135.50 L 872.20 129.20 L 869.80 129.10 L 868.80 128.70 L 868.10 127.90 L 864.90 121.50 L 860.90 118.60 L 856.80 116.10 L 852.50 114.00 L 848.10 112.20 L 843.50 110.80 L 838.80 109.90 L 834.00 109.30 L 829.10 109.10 L 823.80 109.40 L 818.70 110.00 L 813.80 111.10 L 809.10 112.60 L 804.60 114.50 L 800.30 116.70 L 796.40 119.20 L 792.80 122.00 L 789.40 125.20 L 786.50 128.60 L 783.90 132.20 L 781.80 136.00 L 780.00 140.10 L 778.80 144.20 L 778.00 148.60 L 777.50 154.60 L 776.80 155.80 L 775.70 156.70 L 774.30 157.10 L 770.40 157.30 L 763.10 158.80 L 759.60 160.00 L 755.20 162.10 L 751.20 164.60 L 747.60 167.70 L 744.40 171.20 L 741.70 175.00 L 739.50 179.10 L 738.30 182.40 L 736.80 189.40 L 736.60 193.10 L 736.80 197.40 L 737.60 201.50 L 738.90 205.50 L 740.60 209.40 L 744.10 211.70 L 747.80 213.60 L 751.70 215.20 L 755.70 216.30 L 759.80 216.90 L 764.00 217.10 Z" fill="#80adff" fill-rule="nonzero" group-id="1,2" node-id="49" stroke="none" target-height="108.00001" target-width="174.80005" target-x="736.6" target-y="109.1"></path><path d="M 873.70 225.10 L 860.00 225.10 L 858.40 224.80 L 857.20 224.00 L 856.30 222.70 L 856.00 221.10 L 856.30 219.60 L 857.20 218.30 L 858.40 217.40 L 860.00 217.10 L 877.60 216.90 L 881.20 216.20 L 884.70 215.20 L 888.20 213.70 L 894.40 209.60 L 900.00 204.20 L 904.50 197.80 L 906.30 194.20 L 909.20 186.20 L 910.10 182.10 L 910.90 173.10 L 910.70 168.60 L 910.10 164.20 L 907.90 156.00 L 906.30 152.10 L 902.40 145.10 L 897.30 139.10 L 894.40 136.60 L 888.20 132.60 L 884.70 131.10 L 881.20 130.00 L 877.60 129.40 L 871.00 129.30 L 868.60 128.70 L 867.00 126.80 L 865.00 122.40 L 862.50 118.40 L 859.50 114.70 L 856.20 111.20 L 852.50 108.10 L 848.40 105.30 L 844.10 102.90 L 839.50 100.90 L 834.60 99.30 L 829.50 98.10 L 824.30 97.40 L 818.90 97.10 L 813.60 97.40 L 808.60 98.00 L 803.80 99.10 L 799.20 100.60 L 794.60 102.50 L 790.50 104.70 L 786.60 107.20 L 783.00 110.00 L 779.60 113.20 L 776.70 116.60 L 774.20 120.20 L 772.10 124.00 L 770.30 128.10 L 769.10 132.20 L 768.30 136.60 L 768.10 141.10 L 767.70 142.70 L 766.90 144.00 L 765.60 144.80 L 756.50 145.90 L 749.60 148.00 L 745.30 150.10 L 741.40 152.60 L 737.80 155.70 L 734.60 159.20 L 732.00 163.00 L 729.80 167.10 L 727.70 173.80 L 726.90 181.10 L 727.10 184.90 L 728.60 191.80 L 729.80 195.10 L 732.00 199.30 L 734.60 203.10 L 737.80 206.60 L 741.40 209.60 L 745.30 212.20 L 749.60 214.30 L 756.50 216.40 L 764.10 217.10 L 832.60 217.10 L 834.20 217.40 L 835.40 218.30 L 836.30 219.60 L 836.60 221.10 L 836.30 222.70 L 835.40 224.00 L 834.20 224.80 L 832.60 225.10 L 764.00 225.10 L 759.30 224.90 L 754.80 224.20 L 750.60 223.10 L 746.40 221.70 L 742.50 219.80 L 738.80 217.60 L 735.30 215.10 L 732.10 212.20 L 729.20 209.10 L 726.60 205.70 L 724.30 202.10 L 722.40 198.20 L 720.90 194.20 L 719.80 190.00 L 719.10 185.70 L 718.90 181.10 L 719.10 176.80 L 719.70 172.70 L 720.70 168.70 L 722.10 164.80 L 723.80 161.10 L 728.20 154.40 L 730.80 151.30 L 736.90 145.90 L 744.00 141.70 L 751.70 138.80 L 760.20 137.30 L 760.90 132.30 L 762.10 127.50 L 763.70 122.90 L 765.90 118.40 L 768.50 114.20 L 771.50 110.30 L 774.90 106.60 L 778.70 103.10 L 782.80 100.00 L 787.20 97.30 L 791.90 94.90 L 796.90 92.90 L 802.10 91.30 L 807.40 90.10 L 813.00 89.40 L 818.90 89.10 L 824.80 89.40 L 830.60 90.20 L 836.10 91.40 L 841.60 93.20 L 846.70 95.30 L 851.60 97.90 L 856.20 100.90 L 860.40 104.30 L 864.20 108.00 L 867.70 112.10 L 870.70 116.50 L 873.20 121.10 L 878.40 121.40 L 882.80 122.20 L 887.10 123.50 L 891.30 125.20 L 895.20 127.40 L 898.90 130.00 L 902.40 133.00 L 905.60 136.40 L 908.50 140.10 L 911.10 144.00 L 913.40 148.30 L 915.30 152.90 L 916.80 157.60 L 917.90 162.60 L 918.60 167.70 L 918.90 173.10 L 918.60 178.50 L 917.90 183.70 L 916.80 188.60 L 915.30 193.40 L 913.40 198.00 L 911.10 202.20 L 908.50 206.20 L 905.60 209.90 L 902.40 213.30 L 898.90 216.30 L 895.20 218.80 L 891.30 221.00 L 887.10 222.80 L 882.90 224.10 L 878.40 224.80 L 873.70 225.10 Z" fill="#101129" fill-rule="nonzero" group-id="1,2" node-id="51" stroke="none" target-height="136" target-width="200" target-x="718.9" target-y="89.1"></path><path d="M 800.00 512.00 L 799.70 525.70 L 798.70 539.10 L 797.20 552.30 L 795.10 565.30 L 792.40 578.00 L 789.10 590.70 L 785.30 603.10 L 780.90 615.20 L 776.10 627.10 L 770.70 638.70 L 764.80 650.00 L 758.50 661.00 L 751.70 671.70 L 744.40 682.10 L 736.70 692.10 L 728.60 701.80 L 720.10 711.10 L 711.10 720.10 L 701.80 728.60 L 692.10 736.70 L 682.10 744.40 L 671.70 751.70 L 661.00 758.50 L 650.00 764.80 L 638.70 770.70 L 627.10 776.10 L 615.20 780.90 L 603.10 785.30 L 590.70 789.10 L 578.00 792.40 L 565.30 795.10 L 552.30 797.20 L 539.10 798.70 L 525.70 799.70 L 512.00 800.00 L 498.30 799.70 L 484.90 798.70 L 471.70 797.20 L 458.70 795.10 L 446.00 792.40 L 433.30 789.10 L 420.90 785.30 L 408.80 780.90 L 396.90 776.10 L 385.30 770.70 L 374.00 764.80 L 363.00 758.50 L 352.30 751.70 L 341.90 744.40 L 331.90 736.70 L 322.20 728.60 L 312.90 720.10 L 303.90 711.10 L 295.40 701.80 L 287.30 692.10 L 279.60 682.10 L 272.30 671.70 L 265.50 661.00 L 259.20 650.00 L 253.30 638.70 L 247.90 627.10 L 243.10 615.20 L 238.70 603.10 L 234.90 590.70 L 231.60 578.00 L 228.90 565.30 L 226.80 552.30 L 225.30 539.10 L 224.30 525.70 L 224.00 512.00 L 224.30 498.30 L 225.30 484.90 L 226.80 471.70 L 228.90 458.70 L 231.60 446.00 L 234.90 433.30 L 238.70 420.90 L 243.10 408.80 L 247.90 396.90 L 253.30 385.30 L 259.20 374.00 L 265.50 363.00 L 272.30 352.30 L 279.60 341.90 L 287.30 331.90 L 295.40 322.20 L 303.90 312.90 L 312.90 303.90 L 322.20 295.40 L 331.90 287.30 L 341.90 279.60 L 352.30 272.30 L 363.00 265.50 L 374.00 259.20 L 385.30 253.30 L 396.90 247.90 L 408.80 243.10 L 420.90 238.70 L 433.30 234.90 L 446.00 231.60 L 458.70 228.90 L 471.70 226.80 L 484.90 225.30 L 498.30 224.30 L 512.00 224.00 L 525.70 224.30 L 539.10 225.30 L 552.30 226.80 L 565.30 228.90 L 578.00 231.60 L 590.70 234.90 L 603.10 238.70 L 615.20 243.10 L 627.10 247.90 L 638.70 253.30 L 650.00 259.20 L 661.00 265.50 L 671.70 272.30 L 682.10 279.60 L 692.10 287.30 L 701.80 295.40 L 711.10 303.90 L 720.10 312.90 L 728.60 322.20 L 736.70 331.90 L 744.40 341.90 L 751.70 352.30 L 758.50 363.00 L 764.80 374.00 L 770.70 385.30 L 776.10 396.90 L 780.90 408.80 L 785.30 420.90 L 789.10 433.30 L 792.40 446.00 L 795.10 458.70 L 797.20 471.70 L 798.70 484.90 L 799.70 498.30 L 800.00 512.00 Z" fill="#ffffff" fill-rule="nonzero" group-id="1,2" node-id="53" stroke="none" target-height="576" target-width="576" target-x="224" target-y="224"></path><path d="M 512.50 804.10 L 499.60 803.80 L 486.90 803.00 L 474.10 801.60 L 461.50 799.60 L 448.90 797.10 L 436.40 794.10 L 423.80 790.30 L 411.50 786.10 L 399.60 781.40 L 388.00 776.30 L 376.80 770.70 L 365.70 764.50 L 355.10 758.00 L 344.70 751.00 L 334.80 743.70 L 325.20 735.90 L 315.90 727.70 L 307.00 719.20 L 298.50 710.40 L 290.50 701.20 L 282.80 691.70 L 275.50 681.90 L 268.60 671.80 L 262.20 661.40 L 256.20 650.70 L 250.60 639.80 L 245.50 628.70 L 240.90 617.40 L 236.80 605.80 L 233.10 594.10 L 230.00 582.10 L 227.30 570.10 L 225.20 557.90 L 223.50 545.60 L 222.40 533.10 L 221.90 520.50 L 221.90 507.90 L 222.40 495.20 L 223.50 482.50 L 225.20 469.60 L 227.50 456.70 L 230.40 443.80 L 233.80 431.30 L 237.70 419.10 L 242.00 407.20 L 246.90 395.60 L 252.30 384.20 L 258.10 373.10 L 264.40 362.30 L 271.00 351.90 L 278.10 341.80 L 285.70 332.00 L 293.60 322.60 L 301.90 313.50 L 310.50 304.90 L 319.50 296.60 L 328.80 288.60 L 338.40 281.10 L 348.40 274.00 L 358.60 267.30 L 369.10 261.10 L 379.90 255.30 L 390.90 249.90 L 402.10 245.00 L 413.60 240.60 L 425.30 236.60 L 437.20 233.20 L 449.20 230.20 L 461.40 227.80 L 473.70 225.90 L 486.30 224.50 L 498.90 223.60 L 511.50 223.30 L 524.30 223.60 L 537.30 224.40 L 550.30 225.90 L 563.40 227.90 L 576.10 230.50 L 588.50 233.50 L 600.60 237.10 L 612.50 241.20 L 624.30 245.80 L 635.80 250.90 L 646.90 256.40 L 657.70 262.40 L 668.30 268.80 L 678.60 275.70 L 688.50 282.90 L 698.10 290.60 L 707.30 298.60 L 716.20 307.00 L 724.70 315.80 L 732.80 324.90 L 740.60 334.40 L 747.90 344.10 L 754.90 354.20 L 761.40 364.60 L 767.50 375.20 L 773.10 386.10 L 778.30 397.20 L 783.00 408.70 L 787.20 420.30 L 790.90 432.10 L 794.20 444.10 L 796.90 456.30 L 799.20 468.70 L 800.80 481.20 L 802.00 493.80 L 802.50 506.60 L 802.50 519.60 L 802.00 532.70 L 800.80 545.80 L 799.10 558.70 L 796.90 571.30 L 794.10 583.60 L 790.80 595.80 L 787.00 607.80 L 782.70 619.60 L 777.90 631.10 L 772.70 642.30 L 767.00 653.20 L 760.80 664.00 L 754.20 674.30 L 747.20 684.40 L 739.80 694.10 L 732.00 703.60 L 723.80 712.70 L 715.20 721.40 L 706.30 729.70 L 697.10 737.70 L 687.50 745.30 L 677.60 752.50 L 667.40 759.20 L 656.90 765.60 L 646.10 771.50 L 635.00 777.00 L 623.70 781.90 L 612.20 786.40 L 600.40 790.50 L 588.40 794.00 L 576.10 797.10 L 563.80 799.60 L 551.30 801.50 L 538.60 802.90 L 525.60 803.80 L 512.50 804.10 Z M 511.50 227.90 L 499.30 228.20 L 487.20 229.00 L 475.30 230.20 L 463.60 232.00 L 452.10 234.20 L 440.60 237.00 L 429.30 240.20 L 418.20 243.80 L 407.40 247.80 L 396.70 252.30 L 386.20 257.20 L 376.00 262.50 L 366.10 268.20 L 356.40 274.30 L 346.90 280.80 L 337.70 287.70 L 328.80 294.90 L 320.20 302.40 L 311.90 310.30 L 304.00 318.60 L 296.30 327.20 L 289.00 336.00 L 282.10 345.10 L 275.50 354.60 L 269.30 364.40 L 263.50 374.40 L 258.10 384.60 L 253.10 395.10 L 248.50 405.90 L 244.30 417.00 L 240.60 428.10 L 237.40 439.50 L 234.60 451.10 L 232.30 463.00 L 230.40 475.10 L 229.10 487.30 L 228.30 499.40 L 228.00 511.30 L 228.20 523.20 L 228.90 534.90 L 230.10 546.70 L 231.80 558.30 L 233.90 569.70 L 236.50 581.00 L 239.50 592.10 L 243.00 603.20 L 246.90 614.00 L 251.30 624.60 L 256.10 635.10 L 261.20 645.30 L 266.80 655.30 L 272.80 665.10 L 279.20 674.60 L 285.90 683.80 L 293.00 692.80 L 300.50 701.50 L 308.30 709.90 L 316.50 718.00 L 325.00 725.70 L 333.90 733.20 L 343.00 740.30 L 352.50 747.00 L 362.20 753.30 L 372.30 759.30 L 382.70 764.90 L 393.30 770.00 L 404.20 774.70 L 415.30 779.00 L 426.80 782.90 L 438.50 786.30 L 451.60 789.50 L 464.70 792.00 L 477.60 793.90 L 490.50 795.20 L 503.30 795.90 L 516.20 796.00 L 529.00 795.50 L 541.60 794.50 L 554.20 792.90 L 566.60 790.70 L 578.90 788.00 L 591.00 784.70 L 602.90 781.00 L 614.60 776.70 L 626.20 771.90 L 637.50 766.60 L 648.60 760.90 L 659.30 754.70 L 669.80 748.00 L 680.10 740.80 L 690.00 733.20 L 699.50 725.20 L 708.80 716.70 L 717.60 707.90 L 726.10 698.60 L 734.20 688.90 L 741.90 678.90 L 749.10 668.40 L 755.90 657.60 L 762.30 646.40 L 768.10 634.90 L 773.40 623.10 L 778.20 611.00 L 782.60 598.40 L 786.40 585.50 L 790.20 586.50 L 786.40 585.50 L 789.50 572.40 L 792.10 559.40 L 794.00 546.40 L 795.30 533.60 L 795.90 520.70 L 796.00 507.80 L 795.60 495.00 L 794.50 482.40 L 792.90 469.90 L 790.70 457.50 L 788.00 445.20 L 784.80 433.00 L 781.00 421.10 L 776.80 409.40 L 772.00 397.90 L 766.70 386.50 L 760.90 375.50 L 754.70 364.70 L 748.00 354.20 L 740.80 344.00 L 733.20 334.00 L 725.20 324.50 L 716.80 315.30 L 707.90 306.40 L 698.60 297.90 L 688.90 289.80 L 678.90 282.20 L 668.50 275.00 L 657.70 268.20 L 646.40 261.80 L 635.00 255.90 L 623.20 250.60 L 611.00 245.80 L 598.50 241.50 L 585.50 237.70 L 573.40 234.70 L 561.20 232.30 L 548.90 230.30 L 536.50 229.00 L 524.00 228.20 L 511.50 227.90 Z" fill="#101129" fill-rule="nonzero" group-id="1,2" node-id="55" stroke="none" target-height="580.8" target-width="580.6" target-x="221.9" target-y="223.3"></path><path d="M 704.00 592.00 L 703.80 601.90 L 703.10 611.60 L 702.00 621.10 L 700.50 630.50 L 698.50 639.70 L 696.10 648.90 L 693.40 657.80 L 690.20 666.60 L 686.70 675.10 L 682.90 683.50 L 677.50 693.70 L 671.60 703.50 L 665.20 713.00 L 658.30 722.10 L 650.90 730.80 L 643.10 739.10 L 634.80 746.90 L 626.10 754.30 L 617.00 761.20 L 607.50 767.60 L 597.70 773.50 L 587.50 778.90 L 579.10 782.70 L 570.60 786.20 L 561.80 789.40 L 552.90 792.10 L 543.70 794.50 L 534.50 796.50 L 525.10 798.00 L 515.60 799.10 L 505.90 799.80 L 496.00 800.00 L 486.10 799.80 L 476.40 799.10 L 466.90 798.00 L 457.50 796.50 L 448.30 794.50 L 439.10 792.10 L 430.20 789.40 L 421.40 786.20 L 412.90 782.70 L 404.50 778.90 L 394.30 773.50 L 384.50 767.60 L 375.00 761.20 L 365.90 754.30 L 357.20 746.90 L 348.90 739.10 L 341.10 730.80 L 333.70 722.10 L 326.80 713.00 L 320.40 703.50 L 314.50 693.70 L 309.10 683.50 L 305.30 675.10 L 301.80 666.60 L 298.60 657.80 L 295.90 648.90 L 293.50 639.70 L 291.50 630.50 L 290.00 621.10 L 288.90 611.60 L 288.20 601.90 L 288.00 592.00 L 288.20 582.10 L 288.90 572.40 L 290.00 562.90 L 291.50 553.50 L 293.50 544.30 L 295.90 535.10 L 298.60 526.20 L 301.80 517.40 L 305.30 508.90 L 309.10 500.50 L 314.50 490.30 L 320.40 480.50 L 326.80 471.00 L 333.70 461.90 L 341.10 453.20 L 348.90 444.90 L 357.20 437.10 L 365.90 429.70 L 375.00 422.80 L 384.50 416.40 L 394.30 410.50 L 404.50 405.10 L 412.90 401.30 L 421.40 397.80 L 430.20 394.60 L 439.10 391.90 L 448.30 389.50 L 457.50 387.50 L 466.90 386.00 L 476.40 384.90 L 486.10 384.20 L 496.00 384.00 L 505.90 384.20 L 515.60 384.90 L 525.10 386.00 L 534.50 387.50 L 543.70 389.50 L 552.90 391.90 L 561.80 394.60 L 570.60 397.80 L 579.10 401.30 L 587.50 405.10 L 597.70 410.50 L 607.50 416.40 L 617.00 422.80 L 626.10 429.70 L 634.80 437.10 L 643.10 444.90 L 650.90 453.20 L 658.30 461.90 L 665.20 471.00 L 671.60 480.50 L 677.50 490.30 L 682.90 500.50 L 686.70 508.90 L 690.20 517.40 L 693.40 526.20 L 696.10 535.10 L 698.50 544.30 L 700.50 553.50 L 702.00 562.90 L 703.10 572.40 L 703.80 582.10 L 704.00 592.00 Z" fill="#80adff" fill-rule="nonzero" group-id="1,2" node-id="57" stroke="none" target-height="416" target-width="416" target-x="288" target-y="384"></path><path d="M 446.10 795.30 L 441.20 795.00 L 436.40 794.10 L 432.20 792.60 L 428.10 790.70 L 424.20 788.30 L 420.50 785.30 L 416.80 781.70 L 413.30 777.40 L 409.80 772.20 L 406.40 766.20 L 403.20 759.40 L 400.20 751.60 L 397.50 742.70 L 395.40 734.20 L 393.50 724.90 L 392.00 714.70 L 390.70 703.60 L 389.70 691.40 L 389.10 676.90 L 389.00 661.70 L 389.50 645.50 L 390.40 629.40 L 391.80 612.60 L 393.80 595.10 L 396.20 577.80 L 399.10 559.90 L 402.50 541.60 L 406.30 523.40 L 410.60 504.90 L 415.40 486.10 L 420.60 467.50 L 426.10 449.30 L 431.90 431.60 L 438.20 414.00 L 444.60 397.10 L 451.20 380.90 L 458.20 364.80 L 465.40 349.50 L 472.60 335.10 L 480.30 320.90 L 488.10 307.70 L 495.80 295.50 L 502.70 285.40 L 509.40 276.40 L 515.90 268.40 L 522.10 261.30 L 528.20 255.00 L 535.00 248.60 L 541.50 243.40 L 547.70 239.00 L 553.60 235.50 L 559.20 232.80 L 564.40 230.90 L 569.40 229.60 L 574.10 228.90 L 578.70 228.70 L 583.20 229.10 L 587.60 230.00 L 591.80 231.40 L 595.90 233.30 L 599.80 235.70 L 603.50 238.70 L 607.20 242.30 L 610.70 246.60 L 614.20 251.80 L 617.60 257.80 L 620.80 264.60 L 623.80 272.40 L 626.50 281.30 L 628.60 289.80 L 630.50 299.10 L 632.00 309.30 L 633.30 320.40 L 634.30 332.60 L 634.90 347.10 L 635.00 362.30 L 634.50 378.50 L 633.60 394.60 L 632.20 411.40 L 630.20 428.90 L 627.80 446.20 L 624.90 464.10 L 621.50 482.40 L 617.70 500.60 L 613.40 519.10 L 608.60 537.90 L 603.40 556.50 L 597.90 574.70 L 592.10 592.40 L 585.80 610.00 L 579.40 626.90 L 572.80 643.10 L 565.80 659.20 L 558.60 674.50 L 551.40 688.90 L 543.70 703.10 L 535.90 716.30 L 528.20 728.50 L 520.70 739.40 L 513.40 749.10 L 506.40 757.70 L 499.60 765.20 L 493.60 771.20 L 487.80 776.30 L 482.30 780.80 L 477.00 784.50 L 471.90 787.70 L 466.30 790.50 L 460.90 792.70 L 455.80 794.20 L 450.80 795.00 L 446.10 795.30 Z M 578.00 236.70 L 573.80 237.00 L 569.50 237.80 L 564.90 239.20 L 560.00 241.30 L 554.80 244.00 L 548.90 247.90 L 542.70 252.60 L 536.20 258.40 L 529.20 265.40 L 522.90 272.50 L 516.30 280.60 L 509.50 289.70 L 502.50 299.90 L 494.80 312.00 L 487.20 325.00 L 479.60 339.00 L 472.50 353.20 L 465.40 368.30 L 458.50 384.20 L 451.90 400.20 L 445.60 416.90 L 439.50 434.30 L 433.70 451.80 L 428.30 469.70 L 423.10 488.20 L 418.40 506.70 L 414.10 525.00 L 410.30 543.00 L 406.90 561.20 L 404.10 578.80 L 401.70 596.00 L 399.80 613.20 L 398.40 629.70 L 397.50 645.60 L 397.00 661.60 L 397.10 676.70 L 397.70 690.90 L 398.60 702.20 L 401.20 722.00 L 404.70 738.50 L 407.20 746.90 L 409.80 754.20 L 412.60 760.60 L 415.50 766.20 L 418.60 771.00 L 421.70 775.00 L 424.90 778.40 L 428.20 781.20 L 431.50 783.40 L 434.90 785.10 L 438.50 786.30 L 442.20 787.00 L 446.00 787.30 L 450.00 787.00 L 454.20 786.30 L 458.70 784.90 L 463.40 783.00 L 468.50 780.40 L 473.80 777.00 L 479.40 772.90 L 485.40 767.80 L 491.60 761.80 L 497.20 755.90 L 508.90 741.80 L 521.50 724.10 L 529.10 712.00 L 536.70 699.00 L 544.30 685.00 L 551.50 670.80 L 558.60 655.70 L 565.50 639.80 L 572.00 623.80 L 578.40 607.10 L 584.50 589.70 L 590.20 572.20 L 595.70 554.30 L 600.90 535.80 L 605.60 517.30 L 609.90 499.00 L 613.70 481.00 L 617.00 462.80 L 619.90 445.20 L 622.30 428.10 L 624.20 410.80 L 625.60 394.30 L 626.50 378.40 L 626.90 362.40 L 626.80 347.30 L 626.30 333.10 L 625.40 321.80 L 622.80 302.00 L 619.30 285.50 L 616.80 277.10 L 614.20 269.80 L 611.40 263.40 L 608.50 257.80 L 605.40 253.00 L 602.30 249.00 L 599.10 245.60 L 595.80 242.80 L 592.50 240.60 L 589.00 238.90 L 585.50 237.70 L 581.80 236.90 L 578.00 236.70 Z" fill="#101129" fill-rule="nonzero" group-id="1,2" node-id="59" stroke="none" target-height="566.6" target-width="246" target-x="389" target-y="228.7"></path><path d="M 471.70 798.70 L 462.70 798.40 L 453.90 797.50 L 445.10 796.10 L 436.40 794.10 L 428.00 791.50 L 419.90 788.40 L 412.00 784.90 L 404.30 780.80 L 396.80 776.20 L 389.50 771.10 L 382.60 765.70 L 376.00 759.70 L 369.60 753.30 L 363.40 746.30 L 357.40 738.80 L 351.60 730.80 L 346.40 722.70 L 341.50 714.20 L 336.80 705.10 L 332.40 695.60 L 328.20 685.50 L 324.40 674.90 L 320.70 663.00 L 317.40 650.90 L 314.60 638.40 L 312.30 625.60 L 310.50 612.80 L 309.20 599.70 L 308.40 586.30 L 308.00 572.70 L 308.20 559.20 L 308.80 545.40 L 309.90 531.60 L 311.50 517.50 L 313.50 503.60 L 316.10 489.50 L 319.10 475.40 L 322.70 461.30 L 326.70 447.20 L 331.10 433.50 L 335.90 420.10 L 341.10 407.00 L 346.70 394.00 L 352.70 381.40 L 359.00 369.20 L 365.70 357.40 L 372.80 345.80 L 380.20 334.70 L 387.90 324.00 L 395.90 313.80 L 404.30 303.80 L 412.90 294.40 L 421.80 285.50 L 430.90 277.20 L 439.60 269.90 L 448.20 263.20 L 456.80 257.10 L 465.40 251.60 L 474.00 246.70 L 482.50 242.30 L 491.50 238.20 L 500.40 234.70 L 509.30 231.80 L 518.10 229.50 L 526.80 227.60 L 535.50 226.30 L 544.40 225.60 L 553.10 225.30 L 561.80 225.70 L 570.50 226.50 L 579.00 228.00 L 587.60 230.00 L 596.00 232.50 L 604.10 235.60 L 612.00 239.10 L 619.70 243.20 L 627.20 247.80 L 634.50 252.90 L 641.40 258.30 L 648.00 264.30 L 654.40 270.70 L 660.60 277.70 L 666.60 285.20 L 672.40 293.20 L 677.60 301.30 L 682.50 309.80 L 687.20 318.90 L 691.60 328.40 L 695.80 338.50 L 699.60 349.20 L 703.30 361.00 L 706.60 373.10 L 709.40 385.60 L 711.70 398.40 L 713.50 411.20 L 714.80 424.30 L 715.60 437.70 L 716.00 451.30 L 715.80 464.80 L 715.20 478.60 L 714.10 492.40 L 712.50 506.50 L 710.50 520.40 L 707.90 534.50 L 704.90 548.60 L 701.30 562.70 L 697.30 576.80 L 692.90 590.50 L 688.10 603.90 L 682.90 617.00 L 677.30 630.00 L 671.30 642.60 L 664.90 654.80 L 658.30 666.60 L 651.20 678.20 L 643.80 689.30 L 636.10 700.00 L 628.10 710.20 L 619.70 720.20 L 611.10 729.60 L 602.20 738.50 L 593.10 746.90 L 577.10 759.80 L 569.20 765.50 L 553.40 775.40 L 545.10 779.90 L 536.90 783.80 L 528.80 787.30 L 520.60 790.30 L 512.60 792.80 L 504.30 794.90 L 496.00 796.60 L 487.90 797.70 L 479.70 798.40 L 471.70 798.70 Z M 552.40 233.30 L 544.70 233.60 L 537.00 234.20 L 529.20 235.40 L 521.30 236.90 L 513.40 239.00 L 505.60 241.40 L 497.90 244.30 L 490.10 247.60 L 482.20 251.40 L 474.30 255.70 L 464.80 261.40 L 455.30 267.90 L 445.80 275.10 L 436.20 283.20 L 427.30 291.30 L 418.60 300.00 L 410.20 309.20 L 402.00 319.00 L 394.20 329.00 L 386.70 339.40 L 379.50 350.30 L 372.50 361.70 L 366.00 373.20 L 359.80 385.10 L 354.00 397.40 L 348.40 410.20 L 343.40 423.00 L 338.70 436.10 L 334.30 449.60 L 330.40 463.30 L 326.90 477.20 L 323.90 491.00 L 321.40 504.80 L 319.40 518.40 L 317.90 532.20 L 316.80 545.80 L 316.20 559.20 L 316.00 572.50 L 316.40 585.80 L 317.20 598.80 L 318.50 611.60 L 320.20 624.20 L 322.40 636.70 L 325.20 648.90 L 328.30 660.80 L 331.90 672.30 L 335.60 682.60 L 339.60 692.20 L 343.80 701.40 L 348.30 710.10 L 353.00 718.20 L 358.00 726.00 L 363.50 733.70 L 369.20 740.80 L 375.10 747.50 L 381.20 753.60 L 387.50 759.30 L 394.00 764.50 L 400.90 769.40 L 408.00 773.80 L 415.30 777.70 L 422.80 781.00 L 430.60 783.90 L 438.50 786.30 L 447.20 788.30 L 455.80 789.70 L 464.50 790.50 L 473.20 790.60 L 482.00 790.20 L 490.70 789.20 L 499.50 787.70 L 508.20 785.60 L 517.00 783.00 L 525.80 779.80 L 534.30 776.20 L 542.80 772.00 L 551.20 767.40 L 559.70 762.20 L 568.20 756.40 L 576.20 750.40 L 584.20 743.90 L 592.10 736.90 L 600.00 729.40 L 607.70 721.40 L 615.00 713.30 L 629.20 695.70 L 642.80 676.30 L 650.60 663.70 L 658.10 650.50 L 665.20 636.70 L 672.00 622.20 L 676.90 610.60 L 681.50 598.60 L 685.90 586.30 L 689.90 573.70 L 693.60 560.70 L 697.50 561.70 L 693.60 560.70 L 696.90 547.60 L 699.70 534.60 L 702.10 521.80 L 704.10 509.10 L 705.60 496.60 L 707.00 480.70 L 707.80 465.20 L 707.90 450.00 L 707.40 435.20 L 705.30 411.60 L 703.80 400.30 L 699.60 378.50 L 696.90 367.70 L 693.80 357.30 L 690.50 347.30 L 686.80 337.70 L 682.80 328.50 L 678.40 319.20 L 673.60 310.50 L 668.60 302.20 L 663.30 294.40 L 657.80 287.00 L 651.80 279.80 L 645.50 273.10 L 639.00 267.00 L 632.20 261.30 L 625.10 256.10 L 617.70 251.30 L 610.10 247.10 L 602.20 243.40 L 594.00 240.30 L 585.50 237.70 L 577.30 235.80 L 569.10 234.40 L 560.80 233.60 L 552.40 233.30 Z" fill="#101129" fill-rule="nonzero" group-id="1,2" node-id="61" stroke="none" target-height="573.4" target-width="408" target-x="308" target-y="225.3"></path><path d="M 717.00 686.80 L 698.40 686.60 L 679.30 685.80 L 659.50 684.60 L 639.10 682.80 L 618.90 680.60 L 598.30 677.80 L 577.30 674.60 L 555.90 670.80 L 534.70 666.70 L 513.20 662.00 L 491.50 656.90 L 469.60 651.30 L 448.90 645.50 L 408.60 633.10 L 369.60 619.50 L 332.20 604.80 L 314.40 597.10 L 296.50 589.00 L 279.40 580.70 L 263.00 572.30 L 247.20 563.80 L 231.50 554.80 L 216.60 545.70 L 202.50 536.60 L 189.30 527.40 L 175.90 517.50 L 163.70 507.80 L 152.80 498.40 L 143.00 489.20 L 135.20 481.20 L 128.20 473.50 L 122.00 466.00 L 116.60 458.60 L 111.80 451.50 L 107.20 443.80 L 103.30 436.40 L 100.20 429.20 L 97.80 422.20 L 96.00 415.40 L 94.90 409.40 L 94.30 403.70 L 94.20 398.00 L 94.50 392.50 L 95.20 387.00 L 96.40 381.70 L 98.10 376.40 L 100.10 371.30 L 102.70 366.40 L 105.70 361.50 L 109.20 356.70 L 113.00 352.30 L 117.20 348.00 L 121.90 343.80 L 127.10 339.70 L 132.90 335.70 L 140.20 331.30 L 148.20 327.10 L 157.10 323.00 L 166.90 319.20 L 176.10 316.00 L 186.00 313.10 L 196.60 310.40 L 208.00 307.90 L 231.00 304.10 L 256.60 301.20 L 274.00 300.10 L 292.30 299.40 L 311.70 299.30 L 313.20 299.60 L 314.50 300.40 L 315.30 301.70 L 315.70 303.30 L 315.30 304.80 L 314.50 306.10 L 313.20 306.90 L 311.70 307.30 L 293.90 307.30 L 277.20 307.90 L 261.40 308.80 L 246.50 310.20 L 231.20 312.00 L 217.10 314.30 L 204.00 316.90 L 191.90 319.70 L 182.00 322.50 L 164.30 328.70 L 149.20 335.50 L 141.90 339.50 L 135.30 343.70 L 129.40 348.00 L 124.20 352.40 L 119.60 357.00 L 115.20 362.00 L 111.50 367.20 L 108.50 372.50 L 106.10 378.00 L 104.20 383.70 L 102.90 389.60 L 102.30 395.60 L 102.30 401.90 L 102.90 408.30 L 104.20 414.90 L 106.00 421.30 L 108.40 427.80 L 111.50 434.70 L 115.30 441.80 L 119.90 449.20 L 124.70 456.00 L 130.00 463.00 L 136.00 470.10 L 142.70 477.40 L 150.20 484.90 L 159.50 493.60 L 169.90 502.50 L 181.40 511.60 L 194.00 520.90 L 207.10 530.00 L 221.00 539.00 L 235.80 548.00 L 251.30 556.90 L 266.90 565.30 L 283.20 573.70 L 300.20 581.80 L 317.90 589.90 L 353.80 604.80 L 372.60 612.00 L 411.30 625.50 L 451.20 637.80 L 471.70 643.50 L 492.40 648.90 L 533.10 658.20 L 573.30 665.80 L 593.20 669.00 L 631.80 674.00 L 651.10 675.90 L 669.90 677.30 L 688.10 678.20 L 705.90 678.70 L 723.80 678.80 L 741.10 678.40 L 757.60 677.50 L 773.50 676.20 L 789.10 674.40 L 803.60 672.30 L 817.10 669.80 L 829.50 666.90 L 839.70 664.20 L 849.10 661.20 L 857.90 658.00 L 866.00 654.70 L 873.50 651.20 L 881.30 647.10 L 888.10 642.80 L 894.20 638.40 L 899.60 633.90 L 904.30 629.40 L 908.80 624.20 L 912.50 619.00 L 915.60 613.60 L 918.10 608.00 L 919.90 602.30 L 921.20 596.50 L 921.80 590.50 L 921.90 584.40 L 921.30 578.10 L 920.10 571.60 L 918.20 564.80 L 915.90 558.50 L 913.00 552.00 L 909.40 545.30 L 905.20 538.30 L 900.10 530.90 L 894.30 523.30 L 882.00 509.30 L 867.10 494.70 L 856.40 485.40 L 844.60 475.90 L 831.60 466.20 L 818.30 456.90 L 804.00 447.60 L 787.80 437.60 L 786.70 435.80 L 786.70 433.70 L 787.80 431.90 L 788.70 431.20 L 789.70 430.80 L 791.80 430.90 L 808.40 440.90 L 822.90 450.40 L 836.40 459.80 L 846.50 467.30 L 855.80 474.60 L 872.60 489.00 L 880.70 496.60 L 894.50 511.20 L 900.50 518.20 L 906.80 526.40 L 912.20 534.30 L 916.70 541.90 L 920.50 549.20 L 923.60 556.30 L 926.10 563.10 L 927.80 569.40 L 929.00 575.60 L 929.70 581.60 L 929.90 587.40 L 929.60 593.20 L 928.90 598.80 L 927.70 604.40 L 926.00 609.60 L 923.90 614.70 L 921.40 619.70 L 918.50 624.50 L 915.00 629.20 L 911.10 633.80 L 906.20 638.80 L 900.60 643.60 L 894.30 648.30 L 887.20 652.80 L 879.40 657.20 L 871.70 661.00 L 863.30 664.60 L 854.20 668.00 L 844.20 671.20 L 833.50 674.20 L 820.40 677.20 L 806.30 679.90 L 790.90 682.30 L 774.30 684.20 L 760.70 685.30 L 732.10 686.60 L 717.00 686.80 Z" fill="#101129" fill-rule="nonzero" group-id="1,2" node-id="63" stroke="none" target-height="387.5" target-width="835.7" target-x="94.2" target-y="299.3"></path><path d="M 960.00 576.00 L 959.70 580.40 L 958.90 584.50 L 957.50 588.50 L 955.60 592.20 L 953.30 595.60 L 950.60 598.60 L 947.60 601.30 L 944.20 603.60 L 940.50 605.50 L 936.50 606.90 L 932.40 607.70 L 928.00 608.00 L 923.60 607.70 L 919.50 606.90 L 915.50 605.50 L 911.80 603.60 L 908.40 601.30 L 905.40 598.60 L 902.70 595.60 L 900.40 592.20 L 898.50 588.50 L 897.10 584.50 L 896.30 580.40 L 896.00 576.00 L 896.30 571.60 L 897.10 567.50 L 898.50 563.50 L 900.40 559.80 L 902.70 556.40 L 905.40 553.40 L 908.40 550.70 L 911.80 548.40 L 915.50 546.50 L 919.50 545.10 L 923.60 544.30 L 928.00 544.00 L 932.40 544.30 L 936.50 545.10 L 940.50 546.50 L 944.20 548.40 L 947.60 550.70 L 950.60 553.40 L 953.30 556.40 L 955.60 559.80 L 957.50 563.50 L 958.90 567.50 L 959.70 571.60 L 960.00 576.00 Z" fill="#81e6c1" fill-rule="nonzero" group-id="1,2" node-id="65" stroke="none" target-height="64" target-width="64" target-x="896" target-y="544"></path><path d="M 928.00 612.00 L 923.10 611.70 L 918.40 610.70 L 914.00 609.20 L 909.80 607.10 L 906.00 604.50 L 902.50 601.50 L 899.50 598.00 L 896.90 594.20 L 894.80 590.00 L 893.30 585.60 L 892.30 580.90 L 892.00 576.00 L 892.30 571.10 L 893.30 566.40 L 894.80 562.00 L 896.90 557.80 L 899.50 554.00 L 902.50 550.50 L 906.00 547.50 L 909.80 544.90 L 914.00 542.80 L 918.40 541.30 L 923.10 540.30 L 928.00 540.00 L 932.90 540.30 L 937.60 541.30 L 942.00 542.80 L 946.20 544.90 L 950.00 547.50 L 953.50 550.50 L 956.50 554.00 L 959.10 557.80 L 961.20 562.00 L 962.70 566.40 L 963.70 571.10 L 964.00 576.00 L 963.70 580.90 L 962.70 585.60 L 961.20 590.00 L 959.10 594.20 L 956.50 598.00 L 953.50 601.50 L 950.00 604.50 L 946.20 607.10 L 942.00 609.20 L 937.60 610.70 L 932.90 611.70 L 928.00 612.00 Z M 928.00 548.00 L 924.20 548.30 L 920.50 549.00 L 917.10 550.20 L 913.90 551.80 L 910.90 553.80 L 908.20 556.20 L 905.80 558.90 L 903.80 561.90 L 902.20 565.10 L 901.00 568.50 L 900.30 572.20 L 900.00 576.00 L 900.30 579.80 L 901.00 583.50 L 902.20 586.90 L 903.80 590.10 L 905.80 593.10 L 908.20 595.80 L 910.90 598.20 L 913.90 600.20 L 917.10 601.80 L 920.50 603.00 L 924.20 603.70 L 928.00 604.00 L 931.80 603.70 L 935.50 603.00 L 938.90 601.80 L 942.10 600.20 L 945.10 598.20 L 947.80 595.80 L 950.20 593.10 L 952.20 590.10 L 953.80 586.90 L 955.00 583.50 L 955.70 579.80 L 956.00 576.00 L 955.70 572.20 L 955.00 568.50 L 953.80 565.10 L 952.20 561.90 L 950.20 558.90 L 947.80 556.20 L 945.10 553.80 L 942.10 551.80 L 938.90 550.20 L 935.50 549.00 L 931.80 548.30 L 928.00 548.00 Z" fill="#101129" fill-rule="nonzero" group-id="1,2" node-id="67" stroke="none" target-height="72" target-width="72" target-x="892" target-y="540"></path><path d="M 256.00 544.00 L 255.70 548.40 L 254.90 552.50 L 253.50 556.50 L 251.60 560.20 L 249.30 563.60 L 246.60 566.60 L 243.60 569.30 L 240.20 571.60 L 236.50 573.50 L 232.50 574.90 L 228.40 575.70 L 224.00 576.00 L 219.60 575.70 L 215.50 574.90 L 211.50 573.50 L 207.80 571.60 L 204.40 569.30 L 201.40 566.60 L 198.70 563.60 L 196.40 560.20 L 194.50 556.50 L 193.10 552.50 L 192.30 548.40 L 192.00 544.00 L 192.30 539.60 L 193.10 535.50 L 194.50 531.50 L 196.40 527.80 L 198.70 524.40 L 201.40 521.40 L 204.40 518.70 L 207.80 516.40 L 211.50 514.50 L 215.50 513.10 L 219.60 512.30 L 224.00 512.00 L 228.40 512.30 L 232.50 513.10 L 236.50 514.50 L 240.20 516.40 L 243.60 518.70 L 246.60 521.40 L 249.30 524.40 L 251.60 527.80 L 253.50 531.50 L 254.90 535.50 L 255.70 539.60 L 256.00 544.00 Z" fill="#ffdc8a" fill-rule="nonzero" group-id="1,2" node-id="69" stroke="none" target-height="64" target-width="64" target-x="192" target-y="512"></path><path d="M 224.00 580.00 L 219.10 579.70 L 214.40 578.70 L 210.00 577.20 L 205.80 575.10 L 202.00 572.50 L 198.50 569.50 L 195.50 566.00 L 192.90 562.20 L 190.80 558.00 L 189.30 553.60 L 188.30 548.90 L 188.00 544.00 L 188.30 539.10 L 189.30 534.40 L 190.80 530.00 L 192.90 525.80 L 195.50 522.00 L 198.50 518.50 L 202.00 515.50 L 205.80 512.90 L 210.00 510.80 L 214.40 509.30 L 219.10 508.30 L 224.00 508.00 L 228.90 508.30 L 233.60 509.30 L 238.00 510.80 L 242.20 512.90 L 246.00 515.50 L 249.50 518.50 L 252.50 522.00 L 255.10 525.80 L 257.20 530.00 L 258.70 534.40 L 259.70 539.10 L 260.00 544.00 L 259.70 548.90 L 258.70 553.60 L 257.20 558.00 L 255.10 562.20 L 252.50 566.00 L 249.50 569.50 L 246.00 572.50 L 242.20 575.10 L 238.00 577.20 L 233.60 578.70 L 228.90 579.70 L 224.00 580.00 Z M 224.00 516.00 L 220.20 516.30 L 216.50 517.00 L 213.10 518.20 L 209.90 519.80 L 206.90 521.80 L 204.20 524.20 L 201.80 526.90 L 199.80 529.90 L 198.20 533.10 L 197.00 536.50 L 196.30 540.20 L 196.00 544.00 L 196.30 547.80 L 197.00 551.50 L 198.20 554.90 L 199.80 558.10 L 201.80 561.10 L 204.20 563.80 L 206.90 566.20 L 209.90 568.20 L 213.10 569.80 L 216.50 571.00 L 220.20 571.70 L 224.00 572.00 L 227.80 571.70 L 231.50 571.00 L 234.90 569.80 L 238.10 568.20 L 241.10 566.20 L 243.80 563.80 L 246.20 561.10 L 248.20 558.10 L 249.80 554.90 L 251.00 551.50 L 251.70 547.80 L 252.00 544.00 L 251.70 540.20 L 251.00 536.50 L 249.80 533.10 L 248.20 529.90 L 246.20 526.90 L 243.80 524.20 L 241.10 521.80 L 238.10 519.80 L 234.90 518.20 L 231.50 517.00 L 227.80 516.30 L 224.00 516.00 Z" fill="#101129" fill-rule="nonzero" group-id="1,2" node-id="71" stroke="none" target-height="72" target-width="72" target-x="188" target-y="508"></path><path d="M 736.00 740.00 L 734.40 739.70 L 733.20 738.80 L 732.30 737.60 L 732.00 736.00 L 732.30 734.40 L 733.20 733.20 L 734.40 732.30 L 736.00 732.00 L 752.30 731.80 L 767.90 731.10 L 782.60 730.00 L 796.70 728.40 L 810.10 726.50 L 822.80 724.20 L 834.90 721.50 L 847.60 718.20 L 859.60 714.50 L 870.90 710.40 L 881.50 705.90 L 891.50 701.00 L 900.90 695.80 L 909.80 690.30 L 911.80 689.60 L 913.90 690.00 L 915.50 691.30 L 916.10 693.40 L 915.70 695.40 L 914.20 697.00 L 905.10 702.70 L 895.40 708.00 L 885.10 713.00 L 874.10 717.70 L 862.60 721.90 L 850.30 725.80 L 837.30 729.20 L 824.80 731.90 L 811.80 734.30 L 798.10 736.30 L 783.70 737.90 L 768.50 739.00 L 752.70 739.80 L 736.00 740.00 Z" fill="#101129" fill-rule="nonzero" group-id="1,2" node-id="73" stroke="none" target-height="50.400024" target-width="184.09998" target-x="732" target-y="689.6"></path><path d="M 938.20 676.00 L 937.00 675.80 L 935.10 674.60 L 934.20 672.40 L 934.60 670.20 L 941.00 662.90 L 945.40 657.40 L 949.10 652.10 L 953.90 643.80 L 957.00 637.40 L 958.20 636.50 L 959.70 636.10 L 961.20 636.30 L 962.60 637.10 L 963.50 638.30 L 963.90 639.70 L 963.80 641.30 L 962.60 644.20 L 958.90 651.50 L 952.00 662.00 L 947.20 668.00 L 941.10 674.80 L 939.80 675.70 L 938.20 676.00 Z" fill="#101129" fill-rule="nonzero" group-id="1,2" node-id="75" stroke="none" target-height="39.900024" target-width="29.700012" target-x="934.2" target-y="636.1"></path></g></g></svg>